<svg xmlns="http://www.w3.org/2000/svg" xmlns:xlink="http://www.w3.org/1999/xlink" version="1.1" x="0px" y="0px" viewBox="7.167 0 109.667 116.0425" enable-background="new 7.167 0 109.667 92.834" xml:space="preserve"><g><path d="M102.653,15.153c-0.866-0.635-2.071-0.449-2.7,0.404c-1.225,1.657-2.134,1.658-2.435,1.658   c-2.476,0-5.741-4.407-7.499-6.774l-0.644-0.869c-2.404-3.176-5.93-6.741-12.231-6.14c-4.848,0.469-8.122,3.904-8.987,9.153h-4.392   v4.798c-8.168,2.37-11.408,8.573-13.89,13.81c-2.921-6.359-7.796-14.859-20.446-14.728c-10.358,0.663-16.548,6.979-18.793,14.884   C7.9,40.988,11.418,51.613,15.75,57.66c4.472,6.24,10.976,11.425,16.688,16.391c6.063,5.27,9.893,7.284,17.591,13.637   c7.635-7.021,19.635-14.521,29.615-24.912c4.526-4.908,8.479-10.01,9.771-18.495c1.378-8.979-0.197-16.693-5.254-21.802   c-2.112-2.135-4.983-4.086-8.693-5.157v-4.737h-3.373c0.52-2.345,1.881-4.968,5.421-5.311c3.527-0.344,5.996,0.954,8.775,4.627   l0.628,0.839c2.462,3.319,6.181,8.334,10.6,8.334h0.002c2.092,0,3.953-1.084,5.534-3.221   C103.692,16.998,103.51,15.788,102.653,15.153z"/><polygon points="94.809,6.45 92.838,8.112 98.97,13.395  "/><polygon points="101.804,12.167 103.495,4.249 100.929,4.12  "/><polygon points="106.35,26.685 108.712,25.67 104.374,18.834  "/><polygon points="106.097,16.016 113.912,18.123 114.18,15.566  "/><polygon points="110.182,6.613 105.469,13.194 112.012,8.425  "/></g><text x="7.167" y="107.834" fill="#000000" font-size="5px" font-weight="bold" font-family="'Helvetica Neue', Helvetica, Arial-Unicode, Arial, Sans-serif">Created by corpus delicti</text><text x="7.167" y="112.834" fill="#000000" font-size="5px" font-weight="bold" font-family="'Helvetica Neue', Helvetica, Arial-Unicode, Arial, Sans-serif">from the Noun Project</text></svg>